Coordinates
version=1
nRows=33
nColumns=21
inDegrees=yes

Units are S.I. units (second, meters, Newtons, ...)
If the header above contains a line with 'inDegrees', this indicates whether rotational values are in degrees (yes) or radians (no).

endheader
time	sternoclavicular_r2	sternoclavicular_r3	unrotscap_r3	unrotscap_r2	acromioclavicular_r2	acromioclavicular_r3	acromioclavicular_r1	unrothum_r1	unrothum_r3	unrothum_r2	elv_angle	shoulder_elev	shoulder1_r2	shoulder_rot	elbow_flexion	pro_sup	deviation	flexion	wrist_hand_r1	wrist_hand_r3
      3.01507538	    -12.56780074	      5.32312723	     -5.32312723	     12.56780074	     -2.54472400	     20.56556426	      9.24407960	     -9.24407960	    -20.56556426	      2.54472400	    128.22249430	     51.93294451	   -128.22249430	     14.31679768	     41.33797181	      0.00000000	      0.00000000	     -0.00000000	     -0.00000000	      0.00000000
      3.03517588	    -12.54397926	      5.31303757	     -5.31303757	     12.54397926	     -2.53990064	     20.52658351	      9.22655802	     -9.22655802	    -20.52658351	      2.53990064	    128.23552353	     51.83450886	   -128.23552353	     14.63155258	     41.89577407	      0.00000000	      0.00000000	     -0.00000000	     -0.00000000	      0.00000000
      3.05527638	    -12.52183227	      5.30365715	     -5.30365715	     12.52183227	     -2.53541632	     20.49034286	      9.21026810	     -9.21026810	    -20.49034286	      2.53541632	    128.24041035	     51.74299258	   -128.24041035	     14.93758574	     42.42738506	      0.00000000	      0.00000000	     -0.00000000	     -0.00000000	      0.00000000
      3.07537688	    -12.50164440	      5.29510652	     -5.29510652	     12.50164440	     -2.53132869	     20.45730804	      9.19541917	     -9.19541917	    -20.45730804	      2.53132869	    128.24024362	     51.65957181	   -128.24024362	     15.23031304	     42.93369773	      0.00000000	      0.00000000	     -0.00000000	     -0.00000000	      0.00000000
      3.09547739	    -12.43783664	      5.26808057	     -5.26808057	     12.43783664	     -2.51840892	     20.35289499	      9.14848622	     -9.14848622	    -20.35289499	      2.51840892	    127.95211165	     51.39590400	   -127.95211165	     16.04557685	     43.44696509	      0.00000000	      0.00000000	     -0.00000000	     -0.00000000	      0.00000000
      3.11557789	    -12.42091691	      5.26091417	     -5.26091417	     12.42091691	     -2.51498301	     20.32520805	      9.13604114	     -9.13604114	    -20.32520805	      2.51498301	    127.93856571	     51.32598788	   -127.93856571	     16.31002918	     43.91007655	      0.00000000	      0.00000000	     -0.00000000	     -0.00000000	      0.00000000
      3.13567839	    -12.49861480	      5.29382333	     -5.29382333	     12.49861480	     -2.53071526	     20.45235050	      9.19319079	     -9.19319079	    -20.45235050	      2.53071526	    128.53678111	     51.64705285	   -128.53678111	     15.46281079	     44.29923306	      0.00000000	      0.00000000	     -0.00000000	     -0.00000000	      0.00000000
      3.15577889	    -12.40655758	      5.25483223	     -5.25483223	     12.40655758	     -2.51207554	     20.30171089	      9.12547932	     -9.12547932	    -20.30171089	      2.51207554	    127.99733259	     51.26665197	   -127.99733259	     16.63849918	     44.75333330	      0.00000000	      0.00000000	     -0.00000000	     -0.00000000	      0.00000000
      3.17587940	    -12.37442081	      5.24122061	     -5.24122061	     12.37442081	     -2.50556850	     20.24912325	      9.10184154	     -9.10184154	    -20.24912325	      2.50556850	    127.84261086	     51.13385567	   -127.84261086	     17.09502532	     45.16332480	      0.00000000	      0.00000000	     -0.00000000	     -0.00000000	      0.00000000
      3.19597990	    -12.41390132	      5.25794270	     -5.25794270	     12.41390132	     -2.51356250	     20.31372796	      9.13088092	     -9.13088092	    -20.31372796	      2.51356250	    128.13561311	     51.29699793	   -128.13561311	     16.77324962	     45.47412906	      0.00000000	      0.00000000	     -0.00000000	     -0.00000000	      0.00000000
      3.21608040	    -12.37255339	      5.24042966	     -5.24042966	     12.37255339	     -2.50519038	     20.24606747	      9.10046799	     -9.10046799	    -20.24606747	      2.50519038	    127.92215408	     51.12613909	   -127.92215408	     17.30519732	     45.87940832	      0.00000000	      0.00000000	     -0.00000000	     -0.00000000	      0.00000000
      3.23618090	    -12.39586603	      5.25030380	     -5.25030380	     12.39586603	     -2.50991072	     20.28421555	      9.11761529	     -9.11761529	    -20.28421555	      2.50991072	    128.12953854	     51.22247208	   -128.12953854	     17.13529669	     46.19904378	      0.00000000	      0.00000000	     -0.00000000	     -0.00000000	      0.00000000
      3.25628141	    -12.39259605	      5.24891879	     -5.24891879	     12.39259605	     -2.50924861	     20.27886466	      9.11521010	     -9.11521010	    -20.27886466	      2.50924861	    128.12934359	     51.20895980	   -128.12934359	     17.27964941	     46.51663066	      0.00000000	      0.00000000	     -0.00000000	     -0.00000000	      0.00000000
      3.27638191	    -12.40635418	      5.25474608	     -5.25474608	     12.40635418	     -2.51203436	     20.30137804	      9.12532971	     -9.12532971	    -20.30137804	      2.51203436	    128.25075050	     51.26581144	   -128.25075050	     17.22644421	     46.80461042	      0.00000000	      0.00000000	     -0.00000000	     -0.00000000	      0.00000000
      3.29648241	    -12.38570152	      5.24599859	     -5.24599859	     12.38570152	     -2.50785261	     20.26758267	      9.11013893	     -9.11013893	    -20.26758267	      2.50785261	    128.12512424	     51.18047010	   -128.12512424	     17.55991467	     47.10698728	      0.00000000	      0.00000000	     -0.00000000	     -0.00000000	      0.00000000
      3.31658291	    -12.40093584	      5.25245113	     -5.25245113	     12.40093584	     -2.51093725	     20.29251165	      9.12134433	     -9.12134433	    -20.29251165	      2.51093725	    128.25355896	     51.24342169	   -128.25355896	     17.49487730	     47.36740177	      0.00000000	      0.00000000	     -0.00000000	     -0.00000000	      0.00000000
      3.33668342	    -12.41048765	      5.25649682	     -5.25649682	     12.41048765	     -2.51287130	     20.30814192	      9.12837003	     -9.12837003	    -20.30814192	      2.51287130	    128.32490093	     51.28289186	   -128.32490093	     17.48632286	     47.61299494	      0.00000000	      0.00000000	     -0.00000000	     -0.00000000	      0.00000000
      3.35678392	    -12.41704760	      5.25927531	     -5.25927531	     12.41704760	     -2.51419956	     20.31887643	      9.13319512	     -9.13319512	    -20.31887643	      2.51419956	    128.37806452	     51.30999904	   -128.37806452	     17.51436391	     47.85036344	      0.00000000	      0.00000000	     -0.00000000	     -0.00000000	      0.00000000
      3.37688442	    -12.42135344	      5.26109906	     -5.26109906	     12.42135344	     -2.51507140	     20.32592237	      9.13636222	     -9.13636222	    -20.32592237	      2.51507140	    128.41210850	     51.32779171	   -128.41210850	     17.56577646	     48.07505193	      0.00000000	      0.00000000	     -0.00000000	     -0.00000000	      0.00000000
      3.39698492	    -12.42442922	      5.26240181	     -5.26240181	     12.42442922	     -2.51569418	     20.33095548	      9.13862457	     -9.13862457	    -20.33095548	      2.51569418	    128.43554924	     51.34050153	   -128.43554924	     17.62763627	     48.28767926	      0.00000000	      0.00000000	     -0.00000000	     -0.00000000	      0.00000000
      3.41708543	    -12.42883585	      5.26426826	     -5.26426826	     12.42883585	     -2.51658644	     20.33816636	      9.14186581	     -9.14186581	    -20.33816636	      2.51658644	    128.46625740	     51.35871071	   -128.46625740	     17.67229842	     48.48642651	      0.00000000	      0.00000000	     -0.00000000	     -0.00000000	      0.00000000
      3.43718593	    -12.43354020	      5.26626080	     -5.26626080	     12.43354020	     -2.51753897	     20.34586442	      9.14532603	     -9.14532603	    -20.34586442	      2.51753897	    128.49674404	     51.37815014	   -128.49674404	     17.71140851	     48.67260432	      0.00000000	      0.00000000	     -0.00000000	     -0.00000000	      0.00000000
      3.45728643	    -12.44007710	      5.26902952	     -5.26902952	     12.44007710	     -2.51886256	     20.35656121	      9.15013416	     -9.15013416	    -20.35656121	      2.51886256	    128.52757311	     51.40516207	   -128.52757311	     17.73012586	     48.83831558	      0.00000000	      0.00000000	     -0.00000000	     -0.00000000	      0.00000000
      3.47738693	    -12.44176423	      5.26974411	     -5.26974411	     12.44176423	     -2.51920417	     20.35932198	      9.15137511	     -9.15137511	    -20.35932198	      2.51920417	    128.53898054	     51.41213367	   -128.53898054	     17.79257291	     49.01203903	      0.00000000	      0.00000000	     -0.00000000	     -0.00000000	      0.00000000
      3.49748744	    -12.43797774	      5.26814033	     -5.26814033	     12.43797774	     -2.51843748	     20.35312588	      9.14859001	     -9.14859001	    -20.35312588	      2.51843748	    128.51148584	     51.39648705	   -128.51148584	     17.91169448	     49.16987102	      0.00000000	      0.00000000	     -0.00000000	     -0.00000000	      0.00000000
      3.51758794	    -12.43832593	      5.26828781	     -5.26828781	     12.43832593	     -2.51850799	     20.35369563	      9.14884611	     -9.14884611	    -20.35369563	      2.51850799	    128.50436854	     51.39792582	   -128.50436854	     17.98532843	     49.31362847	      0.00000000	      0.00000000	     -0.00000000	     -0.00000000	      0.00000000
      3.53768844	    -12.43799603	      5.26814808	     -5.26814808	     12.43799603	     -2.51844119	     20.35315581	      9.14860346	     -9.14860346	    -20.35315581	      2.51844119	    128.49080210	     51.39656263	   -128.49080210	     18.06390585	     49.44653167	      0.00000000	      0.00000000	     -0.00000000	     -0.00000000	      0.00000000
      3.55778894	    -12.43635832	      5.26745442	     -5.26745442	     12.43635832	     -2.51810958	     20.35047590	      9.14739886	     -9.14739886	    -20.35047590	      2.51810958	    128.46531799	     51.38979523	   -128.46531799	     18.15842398	     49.56954405	      0.00000000	      0.00000000	     -0.00000000	     -0.00000000	      0.00000000
      3.57788945	    -12.44984761	      5.27316785	     -5.27316785	     12.44984761	     -2.52084089	     20.37254937	      9.15732073	     -9.15732073	    -20.37254937	      2.52084089	    128.55869183	     51.44553598	   -128.55869183	     18.07012708	     49.67596747	      0.00000000	      0.00000000	     -0.00000000	     -0.00000000	      0.00000000
      3.59798995	    -12.44562213	      5.27137813	     -5.27137813	     12.44562213	     -2.51998532	     20.36563491	      9.15421273	     -9.15421273	    -20.36563491	      2.51998532	    128.51845969	     51.42807533	   -128.51845969	     18.17255778	     49.78560219	      0.00000000	      0.00000000	     -0.00000000	     -0.00000000	      0.00000000
      3.61809045	    -12.47250891	      5.28276610	     -5.28276610	     12.47250891	     -2.52542934	     20.40963162	      9.17398895	     -9.17398895	    -20.40963162	      2.52542934	    128.71779553	     51.53917751	   -128.71779553	     17.92326967	     49.86972463	      0.00000000	      0.00000000	     -0.00000000	     -0.00000000	      0.00000000
      3.63819095	    -12.48068524	      5.28622921	     -5.28622921	     12.48068524	     -2.52708488	     20.42301111	      9.18000294	     -9.18000294	    -20.42301111	      2.52708488	    128.71739903	     51.57296390	   -128.71739903	     17.94300472	     49.91203826	      0.00000000	      0.00000000	     -0.00000000	     -0.00000000	      0.00000000
      3.65829146	    -12.48266381	      5.28706724	     -5.28706724	     12.48266381	     -2.52748551	     20.42624879	      9.18145825	     -9.18145825	    -20.42624879	      2.52748551	    128.73167589	     51.58113981	   -128.73167589	     17.96599872	     49.99448106	      0.00000000	      0.00000000	     -0.00000000	     -0.00000000	      0.00000000
